<?xml version="1.0" encoding="utf-8"?><svg width="auto" height="4920" style="overflow:visible " version="1.1" xmlns="http://www.w3.org/2000/svg"><rect x="20" y="20" width="200" height="40" style="fill:white;stroke:black;stroke-width:1" /><text x="30" y="30" font-size="10" style="fill:blue">xsl:stylesheet</text><text x="30" y="40" font-size="8" style="fill:black">version: 1.0</text><text x="30" y="50" font-size="8" style="fill:black">xmlns:xsl: http://www.w3.org/1999/XSL/Transform</text><rect x="240" y="20" width="200" height="40" style="fill:white;stroke:black;stroke-width:1" /><text x="250" y="30" font-size="10" style="fill:blue">xsl:output</text><path d="M220 40 C240 40 220 40 240 40" style="fill:transparent;stroke:black" /><text x="250" y="40" font-size="8" style="fill:black">method: html</text><text x="250" y="50" font-size="8" style="fill:black">version: 5.0</text><text x="250" y="60" font-size="8" style="fill:black">encoding: utf-8</text><text x="250" y="70" font-size="8" style="fill:black">indent: yes</text><rect x="240" y="70" width="200" height="40" style="fill:white;stroke:black;stroke-width:1" /><text x="250" y="80" font-size="10" style="fill:blue">xsl:template</text><path d="M220 40 C240 40 220 90 240 90" style="fill:transparent;stroke:black" /><text x="250" y="90" font-size="8" style="fill:black">match: rutas</text><rect x="460" y="70" width="200" height="40" style="fill:white;stroke:black;stroke-width:1" /><text x="470" y="80" font-size="10" style="fill:blue">xsl:text</text><path d="M440 90 C460 90 440 90 460 90" style="fill:transparent;stroke:black" /><text x="470" y="90" font-size="8" style="fill:black">disable-output-escaping: yes</text><rect x="526" y="70" width="137" height="40" style="fill:green;stroke:black;stroke-width:1" /><text x="536" y="80" font-size="8" style="fill:white">&lt;!DOCTYPE html&gt;</text><rect x="460" y="120" width="200" height="40" style="fill:white;stroke:black;stroke-width:1" /><text x="470" y="130" font-size="10" style="fill:blue">html</text><path d="M440 90 C460 90 440 140 460 140" style="fill:transparent;stroke:black" /><text x="470" y="140" font-size="8" style="fill:black">lang: es</text><rect x="680" y="120" width="200" height="40" style="fill:white;stroke:black;stroke-width:1" /><text x="690" y="130" font-size="10" style="fill:blue">head</text><path d="M660 140 C680 140 660 140 680 140" style="fill:transparent;stroke:black" /><rect x="900" y="120" width="200" height="40" style="fill:white;stroke:black;stroke-width:1" /><text x="910" y="130" font-size="10" style="fill:blue">meta</text><path d="M880 140 C900 140 880 140 900 140" style="fill:transparent;stroke:black" /><text x="910" y="140" font-size="8" style="fill:black">name: description</text><text x="910" y="150" font-size="8" style="fill:black">content: Ejercicio2. Tarea 1. Rutas</text><rect x="900" y="170" width="200" height="40" style="fill:white;stroke:black;stroke-width:1" /><text x="910" y="180" font-size="10" style="fill:blue">title</text><path d="M880 140 C900 140 880 190 900 190" style="fill:transparent;stroke:black" /><rect x="966" y="170" width="137" height="40" style="fill:green;stroke:black;stroke-width:1" /><text x="976" y="180" font-size="8" style="fill:white">Rutas</text><rect x="900" y="220" width="200" height="40" style="fill:white;stroke:black;stroke-width:1" /><text x="910" y="230" font-size="10" style="fill:blue">link</text><path d="M880 140 C900 140 880 240 900 240" style="fill:transparent;stroke:black" /><text x="910" y="240" font-size="8" style="fill:black">rel: stylesheet</text><text x="910" y="250" font-size="8" style="fill:black">type: text/css</text><text x="910" y="260" font-size="8" style="fill:black">href: estilo.css</text><rect x="680" y="320" width="200" height="40" style="fill:white;stroke:black;stroke-width:1" /><text x="690" y="330" font-size="10" style="fill:blue">body</text><path d="M660 140 C680 140 660 340 680 340" style="fill:transparent;stroke:black" /><rect x="900" y="320" width="200" height="40" style="fill:white;stroke:black;stroke-width:1" /><text x="910" y="330" font-size="10" style="fill:blue">header</text><path d="M880 340 C900 340 880 340 900 340" style="fill:transparent;stroke:black" /><rect x="1120" y="320" width="200" height="40" style="fill:white;stroke:black;stroke-width:1" /><text x="1130" y="330" font-size="10" style="fill:blue">h1</text><path d="M1100 340 C1120 340 1100 340 1120 340" style="fill:transparent;stroke:black" /><rect x="1186" y="320" width="137" height="40" style="fill:green;stroke:black;stroke-width:1" /><text x="1196" y="330" font-size="8" style="fill:white">Rutas</text><rect x="900" y="420" width="200" height="40" style="fill:white;stroke:black;stroke-width:1" /><text x="910" y="430" font-size="10" style="fill:blue">main</text><path d="M880 340 C900 340 880 440 900 440" style="fill:transparent;stroke:black" /><rect x="1120" y="420" width="200" height="40" style="fill:white;stroke:black;stroke-width:1" /><text x="1130" y="430" font-size="10" style="fill:blue">xsl:for-each</text><path d="M1100 440 C1120 440 1100 440 1120 440" style="fill:transparent;stroke:black" /><text x="1130" y="440" font-size="8" style="fill:black">select: ruta</text><rect x="1340" y="420" width="200" height="40" style="fill:white;stroke:black;stroke-width:1" /><text x="1350" y="430" font-size="10" style="fill:blue">section</text><path d="M1320 440 C1340 440 1320 440 1340 440" style="fill:transparent;stroke:black" /><text x="1350" y="440" font-size="8" style="fill:black">class: ruta</text><rect x="1560" y="420" width="200" height="40" style="fill:white;stroke:black;stroke-width:1" /><text x="1570" y="430" font-size="10" style="fill:blue">h2</text><path d="M1540 440 C1560 440 1540 440 1560 440" style="fill:transparent;stroke:black" /><rect x="1780" y="420" width="200" height="40" style="fill:white;stroke:black;stroke-width:1" /><text x="1790" y="430" font-size="10" style="fill:blue">xsl:value-of</text><path d="M1760 440 C1780 440 1760 440 1780 440" style="fill:transparent;stroke:black" /><text x="1790" y="440" font-size="8" style="fill:black">select: nombre</text><rect x="1560" y="520" width="200" height="40" style="fill:white;stroke:black;stroke-width:1" /><text x="1570" y="530" font-size="10" style="fill:blue">p</text><path d="M1540 440 C1560 440 1540 540 1560 540" style="fill:transparent;stroke:black" /><rect x="1626" y="520" width="137" height="40" style="fill:green;stroke:black;stroke-width:1" /><text x="1636" y="530" font-size="8" style="fill:white">
                                  Tipo de ruta:   </text><rect x="1780" y="520" width="200" height="40" style="fill:white;stroke:black;stroke-width:1" /><text x="1790" y="530" font-size="10" style="fill:blue">xsl:value-of</text><path d="M1760 540 C1780 540 1760 540 1780 540" style="fill:transparent;stroke:black" /><text x="1790" y="540" font-size="8" style="fill:black">select: tipoRuta</text><rect x="1560" y="620" width="200" height="40" style="fill:white;stroke:black;stroke-width:1" /><text x="1570" y="630" font-size="10" style="fill:blue">p</text><path d="M1540 440 C1560 440 1540 640 1560 640" style="fill:transparent;stroke:black" /><rect x="1626" y="620" width="137" height="40" style="fill:green;stroke:black;stroke-width:1" /><text x="1636" y="630" font-size="8" style="fill:white">
                                   Transporte:  </text><rect x="1780" y="620" width="200" height="40" style="fill:white;stroke:black;stroke-width:1" /><text x="1790" y="630" font-size="10" style="fill:blue">xsl:value-of</text><path d="M1760 640 C1780 640 1760 640 1780 640" style="fill:transparent;stroke:black" /><text x="1790" y="640" font-size="8" style="fill:black">select: transporte</text><rect x="1560" y="720" width="200" height="40" style="fill:white;stroke:black;stroke-width:1" /><text x="1570" y="730" font-size="10" style="fill:blue">xsl:if</text><path d="M1540 440 C1560 440 1540 740 1560 740" style="fill:transparent;stroke:black" /><text x="1570" y="740" font-size="8" style="fill:black">test: @fechaInicio</text><rect x="1780" y="720" width="200" height="40" style="fill:white;stroke:black;stroke-width:1" /><text x="1790" y="730" font-size="10" style="fill:blue">p</text><path d="M1760 740 C1780 740 1760 740 1780 740" style="fill:transparent;stroke:black" /><rect x="1846" y="720" width="137" height="40" style="fill:green;stroke:black;stroke-width:1" /><text x="1856" y="730" font-size="8" style="fill:white">
                                     Fecha inicio:  </text><rect x="2000" y="720" width="200" height="40" style="fill:white;stroke:black;stroke-width:1" /><text x="2010" y="730" font-size="10" style="fill:blue">xsl:value-of</text><path d="M1980 740 C2000 740 1980 740 2000 740" style="fill:transparent;stroke:black" /><text x="2010" y="740" font-size="8" style="fill:black">select: @fechaInicio</text><rect x="1560" y="870" width="200" height="40" style="fill:white;stroke:black;stroke-width:1" /><text x="1570" y="880" font-size="10" style="fill:blue">xsl:if</text><path d="M1540 440 C1560 440 1540 890 1560 890" style="fill:transparent;stroke:black" /><text x="1570" y="890" font-size="8" style="fill:black">test: @horaInicio</text><rect x="1780" y="870" width="200" height="40" style="fill:white;stroke:black;stroke-width:1" /><text x="1790" y="880" font-size="10" style="fill:blue">p</text><path d="M1760 890 C1780 890 1760 890 1780 890" style="fill:transparent;stroke:black" /><rect x="1846" y="870" width="137" height="40" style="fill:green;stroke:black;stroke-width:1" /><text x="1856" y="880" font-size="8" style="fill:white">
							    Hora inicio:  </text><rect x="2000" y="870" width="200" height="40" style="fill:white;stroke:black;stroke-width:1" /><text x="2010" y="880" font-size="10" style="fill:blue">xsl:value-of</text><path d="M1980 890 C2000 890 1980 890 2000 890" style="fill:transparent;stroke:black" /><text x="2010" y="890" font-size="8" style="fill:black">select: substring(@horaInicio,1,5)</text><rect x="1560" y="1020" width="200" height="40" style="fill:white;stroke:black;stroke-width:1" /><text x="1570" y="1030" font-size="10" style="fill:blue">p</text><path d="M1540 440 C1560 440 1540 1040 1560 1040" style="fill:transparent;stroke:black" /><rect x="1780" y="1020" width="200" height="40" style="fill:white;stroke:black;stroke-width:1" /><text x="1790" y="1030" font-size="10" style="fill:blue">xsl:variable</text><path d="M1760 1040 C1780 1040 1760 1040 1780 1040" style="fill:transparent;stroke:black" /><text x="1790" y="1040" font-size="8" style="fill:black">name: duration</text><text x="1790" y="1050" font-size="8" style="fill:black">select: duracion</text><rect x="1626" y="1070" width="137" height="40" style="fill:green;stroke:black;stroke-width:1" /><text x="1636" y="1080" font-size="8" style="fill:white">
                               Duracion :  </text><rect x="1780" y="1070" width="200" height="40" style="fill:white;stroke:black;stroke-width:1" /><text x="1790" y="1080" font-size="10" style="fill:blue">xsl:value-of</text><path d="M1760 1040 C1780 1040 1760 1090 1780 1090" style="fill:transparent;stroke:black" /><text x="1790" y="1090" font-size="8" style="fill:black">select: substring-after(substring-before($duration, 'H'), 'PT')</text><rect x="1626" y="1120" width="137" height="40" style="fill:green;stroke:black;stroke-width:1" /><text x="1636" y="1130" font-size="8" style="fill:white"> horas
                                   </text><rect x="1780" y="1120" width="200" height="40" style="fill:white;stroke:black;stroke-width:1" /><text x="1790" y="1130" font-size="10" style="fill:blue">xsl:if</text><path d="M1760 1040 C1780 1040 1760 1140 1780 1140" style="fill:transparent;stroke:black" /><text x="1790" y="1140" font-size="8" style="fill:black">test: contains($duration, 'M')</text><rect x="2000" y="1120" width="200" height="40" style="fill:white;stroke:black;stroke-width:1" /><text x="2010" y="1130" font-size="10" style="fill:blue">xsl:text</text><path d="M1980 1140 C2000 1140 1980 1140 2000 1140" style="fill:transparent;stroke:black" /><rect x="2066" y="1120" width="137" height="40" style="fill:green;stroke:black;stroke-width:1" /><text x="2076" y="1130" font-size="8" style="fill:white"> y </text><rect x="2000" y="1170" width="200" height="40" style="fill:white;stroke:black;stroke-width:1" /><text x="2010" y="1180" font-size="10" style="fill:blue">xsl:value-of</text><path d="M1980 1140 C2000 1140 1980 1190 2000 1190" style="fill:transparent;stroke:black" /><text x="2010" y="1190" font-size="8" style="fill:black">select: substring-after(substring-before($duration, 'M'), 'H')</text><rect x="1846" y="1220" width="137" height="40" style="fill:green;stroke:black;stroke-width:1" /><text x="1856" y="1230" font-size="8" style="fill:white">
                                    minutos
                                   </text><rect x="1560" y="1320" width="200" height="40" style="fill:white;stroke:black;stroke-width:1" /><text x="1570" y="1330" font-size="10" style="fill:blue">p</text><path d="M1540 440 C1560 440 1540 1340 1560 1340" style="fill:transparent;stroke:black" /><rect x="1626" y="1320" width="137" height="40" style="fill:green;stroke:black;stroke-width:1" /><text x="1636" y="1330" font-size="8" style="fill:white">
							     Agencia:  </text><rect x="1780" y="1320" width="200" height="40" style="fill:white;stroke:black;stroke-width:1" /><text x="1790" y="1330" font-size="10" style="fill:blue">xsl:value-of</text><path d="M1760 1340 C1780 1340 1760 1340 1780 1340" style="fill:transparent;stroke:black" /><text x="1790" y="1340" font-size="8" style="fill:black">select: @agencia</text><rect x="1560" y="1420" width="200" height="40" style="fill:white;stroke:black;stroke-width:1" /><text x="1570" y="1430" font-size="10" style="fill:blue">p</text><path d="M1540 440 C1560 440 1540 1440 1560 1440" style="fill:transparent;stroke:black" /><rect x="1626" y="1420" width="137" height="40" style="fill:green;stroke:black;stroke-width:1" /><text x="1636" y="1430" font-size="8" style="fill:white">
							     Descripcion :  </text><rect x="1780" y="1420" width="200" height="40" style="fill:white;stroke:black;stroke-width:1" /><text x="1790" y="1430" font-size="10" style="fill:blue">xsl:value-of</text><path d="M1760 1440 C1780 1440 1760 1440 1780 1440" style="fill:transparent;stroke:black" /><text x="1790" y="1440" font-size="8" style="fill:black">select: descripcion</text><rect x="1560" y="1520" width="200" height="40" style="fill:white;stroke:black;stroke-width:1" /><text x="1570" y="1530" font-size="10" style="fill:blue">p</text><path d="M1540 440 C1560 440 1540 1540 1560 1540" style="fill:transparent;stroke:black" /><rect x="1626" y="1520" width="137" height="40" style="fill:green;stroke:black;stroke-width:1" /><text x="1636" y="1530" font-size="8" style="fill:white">
                                Dirigida a: </text><rect x="1780" y="1520" width="200" height="40" style="fill:white;stroke:black;stroke-width:1" /><text x="1790" y="1530" font-size="10" style="fill:blue">xsl:value-of</text><path d="M1760 1540 C1780 1540 1760 1540 1780 1540" style="fill:transparent;stroke:black" /><text x="1790" y="1540" font-size="8" style="fill:black">select: dirigidaA</text><rect x="1560" y="1620" width="200" height="40" style="fill:white;stroke:black;stroke-width:1" /><text x="1570" y="1630" font-size="10" style="fill:blue">p</text><path d="M1540 440 C1560 440 1540 1640 1560 1640" style="fill:transparent;stroke:black" /><rect x="1626" y="1620" width="137" height="40" style="fill:green;stroke:black;stroke-width:1" /><text x="1636" y="1630" font-size="8" style="fill:white">
							     Lugar inicio :  </text><rect x="1780" y="1620" width="200" height="40" style="fill:white;stroke:black;stroke-width:1" /><text x="1790" y="1630" font-size="10" style="fill:blue">xsl:value-of</text><path d="M1760 1640 C1780 1640 1760 1640 1780 1640" style="fill:transparent;stroke:black" /><text x="1790" y="1640" font-size="8" style="fill:black">select: @inicio</text><rect x="1560" y="1720" width="200" height="40" style="fill:white;stroke:black;stroke-width:1" /><text x="1570" y="1730" font-size="10" style="fill:blue">p</text><path d="M1540 440 C1560 440 1540 1740 1560 1740" style="fill:transparent;stroke:black" /><rect x="1626" y="1720" width="137" height="40" style="fill:green;stroke:black;stroke-width:1" /><text x="1636" y="1730" font-size="8" style="fill:white">
                                Direccion inicio: </text><rect x="1780" y="1720" width="200" height="40" style="fill:white;stroke:black;stroke-width:1" /><text x="1790" y="1730" font-size="10" style="fill:blue">xsl:value-of</text><path d="M1760 1740 C1780 1740 1760 1740 1780 1740" style="fill:transparent;stroke:black" /><text x="1790" y="1740" font-size="8" style="fill:black">select: @direccionInicio</text><rect x="1560" y="1820" width="200" height="40" style="fill:white;stroke:black;stroke-width:1" /><text x="1570" y="1830" font-size="10" style="fill:blue">h3</text><path d="M1540 440 C1560 440 1540 1840 1560 1840" style="fill:transparent;stroke:black" /><rect x="1626" y="1820" width="137" height="40" style="fill:green;stroke:black;stroke-width:1" /><text x="1636" y="1830" font-size="8" style="fill:white"> Coordenadas</text><rect x="1560" y="1870" width="200" height="40" style="fill:white;stroke:black;stroke-width:1" /><text x="1570" y="1880" font-size="10" style="fill:blue">ul</text><path d="M1540 440 C1560 440 1540 1890 1560 1890" style="fill:transparent;stroke:black" /><rect x="1780" y="1870" width="200" height="40" style="fill:white;stroke:black;stroke-width:1" /><text x="1790" y="1880" font-size="10" style="fill:blue">li</text><path d="M1760 1890 C1780 1890 1760 1890 1780 1890" style="fill:transparent;stroke:black" /><rect x="1846" y="1870" width="137" height="40" style="fill:green;stroke:black;stroke-width:1" /><text x="1856" y="1880" font-size="8" style="fill:white">
                                    Longitud: </text><rect x="2000" y="1870" width="200" height="40" style="fill:white;stroke:black;stroke-width:1" /><text x="2010" y="1880" font-size="10" style="fill:blue">xsl:value-of</text><path d="M1980 1890 C2000 1890 1980 1890 2000 1890" style="fill:transparent;stroke:black" /><text x="2010" y="1890" font-size="8" style="fill:black">select: coordenadas/longitud</text><rect x="1780" y="1970" width="200" height="40" style="fill:white;stroke:black;stroke-width:1" /><text x="1790" y="1980" font-size="10" style="fill:blue">li</text><path d="M1760 1890 C1780 1890 1760 1990 1780 1990" style="fill:transparent;stroke:black" /><rect x="1846" y="1970" width="137" height="40" style="fill:green;stroke:black;stroke-width:1" /><text x="1856" y="1980" font-size="8" style="fill:white">
                                    Latitud: </text><rect x="2000" y="1970" width="200" height="40" style="fill:white;stroke:black;stroke-width:1" /><text x="2010" y="1980" font-size="10" style="fill:blue">xsl:value-of</text><path d="M1980 1990 C2000 1990 1980 1990 2000 1990" style="fill:transparent;stroke:black" /><text x="2010" y="1990" font-size="8" style="fill:black">select: coordenadas/latitud</text><rect x="1780" y="2070" width="200" height="40" style="fill:white;stroke:black;stroke-width:1" /><text x="1790" y="2080" font-size="10" style="fill:blue">li</text><path d="M1760 1890 C1780 1890 1760 2090 1780 2090" style="fill:transparent;stroke:black" /><rect x="1846" y="2070" width="137" height="40" style="fill:green;stroke:black;stroke-width:1" /><text x="1856" y="2080" font-size="8" style="fill:white">
                                   Altitud: </text><rect x="2000" y="2070" width="200" height="40" style="fill:white;stroke:black;stroke-width:1" /><text x="2010" y="2080" font-size="10" style="fill:blue">xsl:value-of</text><path d="M1980 2090 C2000 2090 1980 2090 2000 2090" style="fill:transparent;stroke:black" /><text x="2010" y="2090" font-size="8" style="fill:black">select: coordenadas/altitud</text><rect x="1846" y="2120" width="137" height="40" style="fill:green;stroke:black;stroke-width:1" /><text x="1856" y="2130" font-size="8" style="fill:white"> metros
                                   </text><rect x="1560" y="2220" width="200" height="40" style="fill:white;stroke:black;stroke-width:1" /><text x="1570" y="2230" font-size="10" style="fill:blue">p</text><path d="M1540 440 C1560 440 1540 2240 1560 2240" style="fill:transparent;stroke:black" /><rect x="1626" y="2220" width="137" height="40" style="fill:green;stroke:black;stroke-width:1" /><text x="1636" y="2230" font-size="8" style="fill:white">
                                   Recomendacion: </text><rect x="1780" y="2220" width="200" height="40" style="fill:white;stroke:black;stroke-width:1" /><text x="1790" y="2230" font-size="10" style="fill:blue">xsl:value-of</text><path d="M1760 2240 C1780 2240 1760 2240 1780 2240" style="fill:transparent;stroke:black" /><text x="1790" y="2240" font-size="8" style="fill:black">select: @recomendacion</text><rect x="1560" y="2320" width="200" height="40" style="fill:white;stroke:black;stroke-width:1" /><text x="1570" y="2330" font-size="10" style="fill:blue">h3</text><path d="M1540 440 C1560 440 1540 2340 1560 2340" style="fill:transparent;stroke:black" /><rect x="1626" y="2320" width="137" height="40" style="fill:green;stroke:black;stroke-width:1" /><text x="1636" y="2330" font-size="8" style="fill:white"> Referencias</text><rect x="1560" y="2370" width="200" height="40" style="fill:white;stroke:black;stroke-width:1" /><text x="1570" y="2380" font-size="10" style="fill:blue">xsl:for-each</text><path d="M1540 440 C1560 440 1540 2390 1560 2390" style="fill:transparent;stroke:black" /><text x="1570" y="2390" font-size="8" style="fill:black">select: referencias/referencia</text><rect x="1780" y="2370" width="200" height="40" style="fill:white;stroke:black;stroke-width:1" /><text x="1790" y="2380" font-size="10" style="fill:blue">ul</text><path d="M1760 2390 C1780 2390 1760 2390 1780 2390" style="fill:transparent;stroke:black" /><rect x="2000" y="2370" width="200" height="40" style="fill:white;stroke:black;stroke-width:1" /><text x="2010" y="2380" font-size="10" style="fill:blue">li</text><path d="M1980 2390 C2000 2390 1980 2390 2000 2390" style="fill:transparent;stroke:black" /><rect x="2220" y="2370" width="200" height="40" style="fill:white;stroke:black;stroke-width:1" /><text x="2230" y="2380" font-size="10" style="fill:blue">xsl:variable</text><path d="M2200 2390 C2220 2390 2200 2390 2220 2390" style="fill:transparent;stroke:black" /><text x="2230" y="2390" font-size="8" style="fill:black">name: ref</text><text x="2230" y="2400" font-size="8" style="fill:black">select: .</text><rect x="2220" y="2420" width="200" height="40" style="fill:white;stroke:black;stroke-width:1" /><text x="2230" y="2430" font-size="10" style="fill:blue">a</text><path d="M2200 2390 C2220 2390 2200 2440 2220 2440" style="fill:transparent;stroke:black" /><text x="2230" y="2440" font-size="8" style="fill:black">href: {$ref}</text><rect x="2440" y="2420" width="200" height="40" style="fill:white;stroke:black;stroke-width:1" /><text x="2450" y="2430" font-size="10" style="fill:blue">xsl:value-of</text><path d="M2420 2440 C2440 2440 2420 2440 2440 2440" style="fill:transparent;stroke:black" /><text x="2450" y="2440" font-size="8" style="fill:black">select: .</text><rect x="1560" y="2670" width="200" height="40" style="fill:white;stroke:black;stroke-width:1" /><text x="1570" y="2680" font-size="10" style="fill:blue">h3</text><path d="M1540 440 C1560 440 1540 2690 1560 2690" style="fill:transparent;stroke:black" /><rect x="1626" y="2670" width="137" height="40" style="fill:green;stroke:black;stroke-width:1" /><text x="1636" y="2680" font-size="8" style="fill:white">Hitos</text><rect x="1560" y="2720" width="200" height="40" style="fill:white;stroke:black;stroke-width:1" /><text x="1570" y="2730" font-size="10" style="fill:blue">xsl:for-each</text><path d="M1540 440 C1560 440 1540 2740 1560 2740" style="fill:transparent;stroke:black" /><text x="1570" y="2740" font-size="8" style="fill:black">select: hitos/hito</text><rect x="1780" y="2720" width="200" height="40" style="fill:white;stroke:black;stroke-width:1" /><text x="1790" y="2730" font-size="10" style="fill:blue">h4</text><path d="M1760 2740 C1780 2740 1760 2740 1780 2740" style="fill:transparent;stroke:black" /><rect x="2000" y="2720" width="200" height="40" style="fill:white;stroke:black;stroke-width:1" /><text x="2010" y="2730" font-size="10" style="fill:blue">xsl:value-of</text><path d="M1980 2740 C2000 2740 1980 2740 2000 2740" style="fill:transparent;stroke:black" /><text x="2010" y="2740" font-size="8" style="fill:black">select: @nombre</text><rect x="1780" y="2820" width="200" height="40" style="fill:white;stroke:black;stroke-width:1" /><text x="1790" y="2830" font-size="10" style="fill:blue">p</text><path d="M1760 2740 C1780 2740 1760 2840 1780 2840" style="fill:transparent;stroke:black" /><rect x="1846" y="2820" width="137" height="40" style="fill:green;stroke:black;stroke-width:1" /><text x="1856" y="2830" font-size="8" style="fill:white">
                                        Descripción: </text><rect x="2000" y="2820" width="200" height="40" style="fill:white;stroke:black;stroke-width:1" /><text x="2010" y="2830" font-size="10" style="fill:blue">xsl:value-of</text><path d="M1980 2840 C2000 2840 1980 2840 2000 2840" style="fill:transparent;stroke:black" /><text x="2010" y="2840" font-size="8" style="fill:black">select: descripcion</text><rect x="1780" y="2920" width="200" height="40" style="fill:white;stroke:black;stroke-width:1" /><text x="1790" y="2930" font-size="10" style="fill:blue">h5</text><path d="M1760 2740 C1780 2740 1760 2940 1780 2940" style="fill:transparent;stroke:black" /><rect x="1846" y="2920" width="137" height="40" style="fill:green;stroke:black;stroke-width:1" /><text x="1856" y="2930" font-size="8" style="fill:white"> Coordenadas hito</text><rect x="1780" y="2970" width="200" height="40" style="fill:white;stroke:black;stroke-width:1" /><text x="1790" y="2980" font-size="10" style="fill:blue">ul</text><path d="M1760 2740 C1780 2740 1760 2990 1780 2990" style="fill:transparent;stroke:black" /><rect x="2000" y="2970" width="200" height="40" style="fill:white;stroke:black;stroke-width:1" /><text x="2010" y="2980" font-size="10" style="fill:blue">li</text><path d="M1980 2990 C2000 2990 1980 2990 2000 2990" style="fill:transparent;stroke:black" /><rect x="2066" y="2970" width="137" height="40" style="fill:green;stroke:black;stroke-width:1" /><text x="2076" y="2980" font-size="8" style="fill:white">
                                            Longitud: </text><rect x="2220" y="2970" width="200" height="40" style="fill:white;stroke:black;stroke-width:1" /><text x="2230" y="2980" font-size="10" style="fill:blue">xsl:value-of</text><path d="M2200 2990 C2220 2990 2200 2990 2220 2990" style="fill:transparent;stroke:black" /><text x="2230" y="2990" font-size="8" style="fill:black">select: coordenadas/longitud</text><rect x="2000" y="3070" width="200" height="40" style="fill:white;stroke:black;stroke-width:1" /><text x="2010" y="3080" font-size="10" style="fill:blue">li</text><path d="M1980 2990 C2000 2990 1980 3090 2000 3090" style="fill:transparent;stroke:black" /><rect x="2066" y="3070" width="137" height="40" style="fill:green;stroke:black;stroke-width:1" /><text x="2076" y="3080" font-size="8" style="fill:white">
                                             Latitud: </text><rect x="2220" y="3070" width="200" height="40" style="fill:white;stroke:black;stroke-width:1" /><text x="2230" y="3080" font-size="10" style="fill:blue">xsl:value-of</text><path d="M2200 3090 C2220 3090 2200 3090 2220 3090" style="fill:transparent;stroke:black" /><text x="2230" y="3090" font-size="8" style="fill:black">select: coordenadas/latitud</text><rect x="2000" y="3170" width="200" height="40" style="fill:white;stroke:black;stroke-width:1" /><text x="2010" y="3180" font-size="10" style="fill:blue">li</text><path d="M1980 2990 C2000 2990 1980 3190 2000 3190" style="fill:transparent;stroke:black" /><rect x="2066" y="3170" width="137" height="40" style="fill:green;stroke:black;stroke-width:1" /><text x="2076" y="3180" font-size="8" style="fill:white">
                                             Altitud: </text><rect x="2220" y="3170" width="200" height="40" style="fill:white;stroke:black;stroke-width:1" /><text x="2230" y="3180" font-size="10" style="fill:blue">xsl:value-of</text><path d="M2200 3190 C2220 3190 2200 3190 2220 3190" style="fill:transparent;stroke:black" /><text x="2230" y="3190" font-size="8" style="fill:black">select: coordenadas/altitud</text><rect x="2066" y="3220" width="137" height="40" style="fill:green;stroke:black;stroke-width:1" /><text x="2076" y="3230" font-size="8" style="fill:white"> metros
                                         </text><rect x="1780" y="3320" width="200" height="40" style="fill:white;stroke:black;stroke-width:1" /><text x="1790" y="3330" font-size="10" style="fill:blue">p</text><path d="M1760 2740 C1780 2740 1760 3340 1780 3340" style="fill:transparent;stroke:black" /><rect x="1846" y="3320" width="137" height="40" style="fill:green;stroke:black;stroke-width:1" /><text x="1856" y="3330" font-size="8" style="fill:white"> 
                                       Distancia desde el hito anterior: </text><rect x="2000" y="3320" width="200" height="40" style="fill:white;stroke:black;stroke-width:1" /><text x="2010" y="3330" font-size="10" style="fill:blue">xsl:value-of</text><path d="M1980 3340 C2000 3340 1980 3340 2000 3340" style="fill:transparent;stroke:black" /><text x="2010" y="3340" font-size="8" style="fill:black">select: distancia</text><rect x="2000" y="3370" width="200" height="40" style="fill:white;stroke:black;stroke-width:1" /><text x="2010" y="3380" font-size="10" style="fill:blue">xsl:text</text><path d="M1980 3340 C2000 3340 1980 3390 2000 3390" style="fill:transparent;stroke:black" /><rect x="2000" y="3420" width="200" height="40" style="fill:white;stroke:black;stroke-width:1" /><text x="2010" y="3430" font-size="10" style="fill:blue">xsl:value-of</text><path d="M1980 3340 C2000 3340 1980 3440 2000 3440" style="fill:transparent;stroke:black" /><text x="2010" y="3440" font-size="8" style="fill:black">select: distancia/@unidad</text><rect x="1780" y="3520" width="200" height="40" style="fill:white;stroke:black;stroke-width:1" /><text x="1790" y="3530" font-size="10" style="fill:blue">h5</text><path d="M1760 2740 C1780 2740 1760 3540 1780 3540" style="fill:transparent;stroke:black" /><rect x="1846" y="3520" width="137" height="40" style="fill:green;stroke:black;stroke-width:1" /><text x="1856" y="3530" font-size="8" style="fill:white"> Fotografías </text><rect x="1780" y="3570" width="200" height="40" style="fill:white;stroke:black;stroke-width:1" /><text x="1790" y="3580" font-size="10" style="fill:blue">xsl:for-each</text><path d="M1760 2740 C1780 2740 1760 3590 1780 3590" style="fill:transparent;stroke:black" /><text x="1790" y="3590" font-size="8" style="fill:black">select: fotografias/fotografía</text><rect x="2000" y="3570" width="200" height="40" style="fill:white;stroke:black;stroke-width:1" /><text x="2010" y="3580" font-size="10" style="fill:blue">ul</text><path d="M1980 3590 C2000 3590 1980 3590 2000 3590" style="fill:transparent;stroke:black" /><rect x="2220" y="3570" width="200" height="40" style="fill:white;stroke:black;stroke-width:1" /><text x="2230" y="3580" font-size="10" style="fill:blue">li</text><path d="M2200 3590 C2220 3590 2200 3590 2220 3590" style="fill:transparent;stroke:black" /><rect x="2440" y="3570" width="200" height="40" style="fill:white;stroke:black;stroke-width:1" /><text x="2450" y="3580" font-size="10" style="fill:blue">xsl:variable</text><path d="M2420 3590 C2440 3590 2420 3590 2440 3590" style="fill:transparent;stroke:black" /><text x="2450" y="3590" font-size="8" style="fill:black">name: ref</text><text x="2450" y="3600" font-size="8" style="fill:black">select: .</text><rect x="2440" y="3620" width="200" height="40" style="fill:white;stroke:black;stroke-width:1" /><text x="2450" y="3630" font-size="10" style="fill:blue">a</text><path d="M2420 3590 C2440 3590 2420 3640 2440 3640" style="fill:transparent;stroke:black" /><text x="2450" y="3640" font-size="8" style="fill:black">href: {$ref}</text><rect x="2660" y="3620" width="200" height="40" style="fill:white;stroke:black;stroke-width:1" /><text x="2670" y="3630" font-size="10" style="fill:blue">xsl:value-of</text><path d="M2640 3640 C2660 3640 2640 3640 2660 3640" style="fill:transparent;stroke:black" /><text x="2670" y="3640" font-size="8" style="fill:black">select: .</text><rect x="1780" y="3870" width="200" height="40" style="fill:white;stroke:black;stroke-width:1" /><text x="1790" y="3880" font-size="10" style="fill:blue">xsl:if</text><path d="M1760 2740 C1780 2740 1760 3890 1780 3890" style="fill:transparent;stroke:black" /><text x="1790" y="3890" font-size="8" style="fill:black">test: videos/video</text><rect x="2000" y="3870" width="200" height="40" style="fill:white;stroke:black;stroke-width:1" /><text x="2010" y="3880" font-size="10" style="fill:blue">h5</text><path d="M1980 3890 C2000 3890 1980 3890 2000 3890" style="fill:transparent;stroke:black" /><rect x="2066" y="3870" width="137" height="40" style="fill:green;stroke:black;stroke-width:1" /><text x="2076" y="3880" font-size="8" style="fill:white"> Vídeos </text><rect x="2000" y="3920" width="200" height="40" style="fill:white;stroke:black;stroke-width:1" /><text x="2010" y="3930" font-size="10" style="fill:blue">xsl:for-each</text><path d="M1980 3890 C2000 3890 1980 3940 2000 3940" style="fill:transparent;stroke:black" /><text x="2010" y="3940" font-size="8" style="fill:black">select: videos/video</text><rect x="2220" y="3920" width="200" height="40" style="fill:white;stroke:black;stroke-width:1" /><text x="2230" y="3930" font-size="10" style="fill:blue">ul</text><path d="M2200 3940 C2220 3940 2200 3940 2220 3940" style="fill:transparent;stroke:black" /><rect x="2440" y="3920" width="200" height="40" style="fill:white;stroke:black;stroke-width:1" /><text x="2450" y="3930" font-size="10" style="fill:blue">li</text><path d="M2420 3940 C2440 3940 2420 3940 2440 3940" style="fill:transparent;stroke:black" /><rect x="2660" y="3920" width="200" height="40" style="fill:white;stroke:black;stroke-width:1" /><text x="2670" y="3930" font-size="10" style="fill:blue">xsl:variable</text><path d="M2640 3940 C2660 3940 2640 3940 2660 3940" style="fill:transparent;stroke:black" /><text x="2670" y="3940" font-size="8" style="fill:black">name: ref</text><text x="2670" y="3950" font-size="8" style="fill:black">select: .</text><rect x="2660" y="3970" width="200" height="40" style="fill:white;stroke:black;stroke-width:1" /><text x="2670" y="3980" font-size="10" style="fill:blue">a</text><path d="M2640 3940 C2660 3940 2640 3990 2660 3990" style="fill:transparent;stroke:black" /><text x="2670" y="3990" font-size="8" style="fill:black">href: {$ref}</text><rect x="2880" y="3970" width="200" height="40" style="fill:white;stroke:black;stroke-width:1" /><text x="2890" y="3980" font-size="10" style="fill:blue">xsl:value-of</text><path d="M2860 3990 C2880 3990 2860 3990 2880 3990" style="fill:transparent;stroke:black" /><text x="2890" y="3990" font-size="8" style="fill:black">select: .</text><rect x="900" y="4470" width="200" height="40" style="fill:white;stroke:black;stroke-width:1" /><text x="910" y="4480" font-size="10" style="fill:blue">footer</text><path d="M880 340 C900 340 880 4490 900 4490" style="fill:transparent;stroke:black" /><rect x="1120" y="4470" width="200" height="40" style="fill:white;stroke:black;stroke-width:1" /><text x="1130" y="4480" font-size="10" style="fill:blue">a</text><path d="M1100 4490 C1120 4490 1100 4490 1120 4490" style="fill:transparent;stroke:black" /><text x="1130" y="4490" font-size="8" style="fill:black">href: https://validator.w3.org/check?uri=referer</text><rect x="1340" y="4470" width="200" height="40" style="fill:white;stroke:black;stroke-width:1" /><text x="1350" y="4480" font-size="10" style="fill:blue">img</text><path d="M1320 4490 C1340 4490 1320 4490 1340 4490" style="fill:transparent;stroke:black" /><text x="1350" y="4490" font-size="8" style="fill:black">src: https://www.w3.org/html/logo/badge/html5-badge-h-solo.png</text><text x="1350" y="4500" font-size="8" style="fill:black">alt:  HTML5 Válido!</text><text x="1350" y="4510" font-size="8" style="fill:black">height: 64</text><text x="1350" y="4520" font-size="8" style="fill:black">width: 63</text><rect x="1120" y="4570" width="200" height="40" style="fill:white;stroke:black;stroke-width:1" /><text x="1130" y="4580" font-size="10" style="fill:blue">a</text><path d="M1100 4490 C1120 4490 1100 4590 1120 4590" style="fill:transparent;stroke:black" /><text x="1130" y="4590" font-size="8" style="fill:black">href:  http://jigsaw.w3.org/css-validator/check/referer </text><rect x="1340" y="4570" width="200" height="40" style="fill:white;stroke:black;stroke-width:1" /><text x="1350" y="4580" font-size="10" style="fill:blue">img</text><path d="M1320 4590 C1340 4590 1320 4590 1340 4590" style="fill:transparent;stroke:black" /><text x="1350" y="4590" font-size="8" style="fill:black">src:  http://jigsaw.w3.org/css-validator/images/vcss</text><text x="1350" y="4600" font-size="8" style="fill:black">alt: ¡CSS Válido!</text><text x="1350" y="4610" font-size="8" style="fill:black">height: 31</text><text x="1350" y="4620" font-size="8" style="fill:black">width: 88</text></svg>