<?xml version="1.0" encoding="utf-8"?><svg width="auto" height="3670" style="overflow:visible " version="1.1" xmlns="http://www.w3.org/2000/svg"><rect x="20" y="20" width="200" height="40" style="fill:white;stroke:black;stroke-width:1" /><text x="30" y="30" font-size="10" style="fill:blue">xs:schema</text><text x="30" y="40" font-size="8" style="fill:black">attributeFormDefault: unqualified</text><text x="30" y="50" font-size="8" style="fill:black">elementFormDefault: qualified</text><text x="30" y="60" font-size="8" style="fill:black">xmlns:xs: http://www.w3.org/2001/XMLSchema</text><rect x="240" y="20" width="200" height="40" style="fill:white;stroke:black;stroke-width:1" /><text x="250" y="30" font-size="10" style="fill:blue">xs:element</text><path d="M220 40 C240 40 220 40 240 40" style="fill:transparent;stroke:black" /><text x="250" y="40" font-size="8" style="fill:black">name: rutas</text><rect x="460" y="20" width="200" height="40" style="fill:white;stroke:black;stroke-width:1" /><text x="470" y="30" font-size="10" style="fill:blue">xs:complexType</text><path d="M440 40 C460 40 440 40 460 40" style="fill:transparent;stroke:black" /><rect x="680" y="20" width="200" height="40" style="fill:white;stroke:black;stroke-width:1" /><text x="690" y="30" font-size="10" style="fill:blue">xs:sequence</text><path d="M660 40 C680 40 660 40 680 40" style="fill:transparent;stroke:black" /><rect x="900" y="20" width="200" height="40" style="fill:white;stroke:black;stroke-width:1" /><text x="910" y="30" font-size="10" style="fill:blue">xs:element</text><path d="M880 40 C900 40 880 40 900 40" style="fill:transparent;stroke:black" /><text x="910" y="40" font-size="8" style="fill:black">maxOccurs: unbounded</text><text x="910" y="50" font-size="8" style="fill:black">name: ruta</text><rect x="1120" y="20" width="200" height="40" style="fill:white;stroke:black;stroke-width:1" /><text x="1130" y="30" font-size="10" style="fill:blue">xs:complexType</text><path d="M1100 40 C1120 40 1100 40 1120 40" style="fill:transparent;stroke:black" /><rect x="1340" y="20" width="200" height="40" style="fill:white;stroke:black;stroke-width:1" /><text x="1350" y="30" font-size="10" style="fill:blue">xs:sequence</text><path d="M1320 40 C1340 40 1320 40 1340 40" style="fill:transparent;stroke:black" /><rect x="1560" y="20" width="200" height="40" style="fill:white;stroke:black;stroke-width:1" /><text x="1570" y="30" font-size="10" style="fill:blue">xs:element</text><path d="M1540 40 C1560 40 1540 40 1560 40" style="fill:transparent;stroke:black" /><text x="1570" y="40" font-size="8" style="fill:black">name: tipo</text><text x="1570" y="50" font-size="8" style="fill:black">type: xs:string</text><rect x="1560" y="70" width="200" height="40" style="fill:white;stroke:black;stroke-width:1" /><text x="1570" y="80" font-size="10" style="fill:blue">xs:element</text><path d="M1540 40 C1560 40 1540 90 1560 90" style="fill:transparent;stroke:black" /><text x="1570" y="90" font-size="8" style="fill:black">name: medio_transporte</text><text x="1570" y="100" font-size="8" style="fill:black">type: xs:string</text><rect x="1560" y="120" width="200" height="40" style="fill:white;stroke:black;stroke-width:1" /><text x="1570" y="130" font-size="10" style="fill:blue">xs:element</text><path d="M1540 40 C1560 40 1540 140 1560 140" style="fill:transparent;stroke:black" /><text x="1570" y="140" font-size="8" style="fill:black">name: fecha_inicio</text><text x="1570" y="150" font-size="8" style="fill:black">type: xs:string</text><rect x="1560" y="170" width="200" height="40" style="fill:white;stroke:black;stroke-width:1" /><text x="1570" y="180" font-size="10" style="fill:blue">xs:element</text><path d="M1540 40 C1560 40 1540 190 1560 190" style="fill:transparent;stroke:black" /><text x="1570" y="190" font-size="8" style="fill:black">name: hora_inicio</text><text x="1570" y="200" font-size="8" style="fill:black">type: xs:string</text><rect x="1560" y="220" width="200" height="40" style="fill:white;stroke:black;stroke-width:1" /><text x="1570" y="230" font-size="10" style="fill:blue">xs:element</text><path d="M1540 40 C1560 40 1540 240 1560 240" style="fill:transparent;stroke:black" /><text x="1570" y="240" font-size="8" style="fill:black">name: duracion</text><rect x="1780" y="220" width="200" height="40" style="fill:white;stroke:black;stroke-width:1" /><text x="1790" y="230" font-size="10" style="fill:blue">xs:complexType</text><path d="M1760 240 C1780 240 1760 240 1780 240" style="fill:transparent;stroke:black" /><rect x="2000" y="220" width="200" height="40" style="fill:white;stroke:black;stroke-width:1" /><text x="2010" y="230" font-size="10" style="fill:blue">xs:simpleContent</text><path d="M1980 240 C2000 240 1980 240 2000 240" style="fill:transparent;stroke:black" /><rect x="2220" y="220" width="200" height="40" style="fill:white;stroke:black;stroke-width:1" /><text x="2230" y="230" font-size="10" style="fill:blue">xs:extension</text><path d="M2200 240 C2220 240 2200 240 2220 240" style="fill:transparent;stroke:black" /><text x="2230" y="240" font-size="8" style="fill:black">base: xs:unsignedByte</text><rect x="2440" y="220" width="200" height="40" style="fill:white;stroke:black;stroke-width:1" /><text x="2450" y="230" font-size="10" style="fill:blue">xs:attribute</text><path d="M2420 240 C2440 240 2420 240 2440 240" style="fill:transparent;stroke:black" /><text x="2450" y="240" font-size="8" style="fill:black">name: unidad</text><text x="2450" y="250" font-size="8" style="fill:black">type: xs:string</text><text x="2450" y="260" font-size="8" style="fill:black">use: required</text><rect x="1560" y="470" width="200" height="40" style="fill:white;stroke:black;stroke-width:1" /><text x="1570" y="480" font-size="10" style="fill:blue">xs:element</text><path d="M1540 40 C1560 40 1540 490 1560 490" style="fill:transparent;stroke:black" /><text x="1570" y="490" font-size="8" style="fill:black">name: agencia</text><text x="1570" y="500" font-size="8" style="fill:black">type: xs:string</text><rect x="1560" y="520" width="200" height="40" style="fill:white;stroke:black;stroke-width:1" /><text x="1570" y="530" font-size="10" style="fill:blue">xs:element</text><path d="M1540 40 C1560 40 1540 540 1560 540" style="fill:transparent;stroke:black" /><text x="1570" y="540" font-size="8" style="fill:black">name: personas_adecuadas</text><text x="1570" y="550" font-size="8" style="fill:black">type: xs:string</text><rect x="1560" y="570" width="200" height="40" style="fill:white;stroke:black;stroke-width:1" /><text x="1570" y="580" font-size="10" style="fill:blue">xs:element</text><path d="M1540 40 C1560 40 1540 590 1560 590" style="fill:transparent;stroke:black" /><text x="1570" y="590" font-size="8" style="fill:black">name: lugar</text><text x="1570" y="600" font-size="8" style="fill:black">type: xs:string</text><rect x="1560" y="620" width="200" height="40" style="fill:white;stroke:black;stroke-width:1" /><text x="1570" y="630" font-size="10" style="fill:blue">xs:element</text><path d="M1540 40 C1560 40 1540 640 1560 640" style="fill:transparent;stroke:black" /><text x="1570" y="640" font-size="8" style="fill:black">name: direccion</text><text x="1570" y="650" font-size="8" style="fill:black">type: xs:string</text><rect x="1560" y="670" width="200" height="40" style="fill:white;stroke:black;stroke-width:1" /><text x="1570" y="680" font-size="10" style="fill:blue">xs:element</text><path d="M1540 40 C1560 40 1540 690 1560 690" style="fill:transparent;stroke:black" /><text x="1570" y="690" font-size="8" style="fill:black">name: coordenadas</text><rect x="1780" y="670" width="200" height="40" style="fill:white;stroke:black;stroke-width:1" /><text x="1790" y="680" font-size="10" style="fill:blue">xs:complexType</text><path d="M1760 690 C1780 690 1760 690 1780 690" style="fill:transparent;stroke:black" /><rect x="2000" y="670" width="200" height="40" style="fill:white;stroke:black;stroke-width:1" /><text x="2010" y="680" font-size="10" style="fill:blue">xs:sequence</text><path d="M1980 690 C2000 690 1980 690 2000 690" style="fill:transparent;stroke:black" /><rect x="2220" y="670" width="200" height="40" style="fill:white;stroke:black;stroke-width:1" /><text x="2230" y="680" font-size="10" style="fill:blue">xs:element</text><path d="M2200 690 C2220 690 2200 690 2220 690" style="fill:transparent;stroke:black" /><text x="2230" y="690" font-size="8" style="fill:black">name: longitud</text><text x="2230" y="700" font-size="8" style="fill:black">type: xs:decimal</text><rect x="2220" y="720" width="200" height="40" style="fill:white;stroke:black;stroke-width:1" /><text x="2230" y="730" font-size="10" style="fill:blue">xs:element</text><path d="M2200 690 C2220 690 2200 740 2220 740" style="fill:transparent;stroke:black" /><text x="2230" y="740" font-size="8" style="fill:black">name: latitud</text><text x="2230" y="750" font-size="8" style="fill:black">type: xs:decimal</text><rect x="2220" y="770" width="200" height="40" style="fill:white;stroke:black;stroke-width:1" /><text x="2230" y="780" font-size="10" style="fill:blue">xs:element</text><path d="M2200 690 C2220 690 2200 790 2220 790" style="fill:transparent;stroke:black" /><text x="2230" y="790" font-size="8" style="fill:black">name: altitud</text><text x="2230" y="800" font-size="8" style="fill:black">type: xs:unsignedByte</text><rect x="1560" y="970" width="200" height="40" style="fill:white;stroke:black;stroke-width:1" /><text x="1570" y="980" font-size="10" style="fill:blue">xs:element</text><path d="M1540 40 C1560 40 1540 990 1560 990" style="fill:transparent;stroke:black" /><text x="1570" y="990" font-size="8" style="fill:black">name: referencias</text><rect x="1780" y="970" width="200" height="40" style="fill:white;stroke:black;stroke-width:1" /><text x="1790" y="980" font-size="10" style="fill:blue">xs:complexType</text><path d="M1760 990 C1780 990 1760 990 1780 990" style="fill:transparent;stroke:black" /><rect x="2000" y="970" width="200" height="40" style="fill:white;stroke:black;stroke-width:1" /><text x="2010" y="980" font-size="10" style="fill:blue">xs:sequence</text><path d="M1980 990 C2000 990 1980 990 2000 990" style="fill:transparent;stroke:black" /><rect x="2220" y="970" width="200" height="40" style="fill:white;stroke:black;stroke-width:1" /><text x="2230" y="980" font-size="10" style="fill:blue">xs:element</text><path d="M2200 990 C2220 990 2200 990 2220 990" style="fill:transparent;stroke:black" /><text x="2230" y="990" font-size="8" style="fill:black">maxOccurs: unbounded</text><text x="2230" y="1000" font-size="8" style="fill:black">name: referencia</text><rect x="2440" y="970" width="200" height="40" style="fill:white;stroke:black;stroke-width:1" /><text x="2450" y="980" font-size="10" style="fill:blue">xs:complexType</text><path d="M2420 990 C2440 990 2420 990 2440 990" style="fill:transparent;stroke:black" /><rect x="2660" y="970" width="200" height="40" style="fill:white;stroke:black;stroke-width:1" /><text x="2670" y="980" font-size="10" style="fill:blue">xs:simpleContent</text><path d="M2640 990 C2660 990 2640 990 2660 990" style="fill:transparent;stroke:black" /><rect x="2880" y="970" width="200" height="40" style="fill:white;stroke:black;stroke-width:1" /><text x="2890" y="980" font-size="10" style="fill:blue">xs:extension</text><path d="M2860 990 C2880 990 2860 990 2880 990" style="fill:transparent;stroke:black" /><text x="2890" y="990" font-size="8" style="fill:black">base: xs:string</text><rect x="3100" y="970" width="200" height="40" style="fill:white;stroke:black;stroke-width:1" /><text x="3110" y="980" font-size="10" style="fill:blue">xs:attribute</text><path d="M3080 990 C3100 990 3080 990 3100 990" style="fill:transparent;stroke:black" /><text x="3110" y="990" font-size="8" style="fill:black">name: numero</text><text x="3110" y="1000" font-size="8" style="fill:black">type: xs:unsignedByte</text><text x="3110" y="1010" font-size="8" style="fill:black">use: required</text><rect x="1560" y="1370" width="200" height="40" style="fill:white;stroke:black;stroke-width:1" /><text x="1570" y="1380" font-size="10" style="fill:blue">xs:element</text><path d="M1540 40 C1560 40 1540 1390 1560 1390" style="fill:transparent;stroke:black" /><text x="1570" y="1390" font-size="8" style="fill:black">name: hitos</text><rect x="1780" y="1370" width="200" height="40" style="fill:white;stroke:black;stroke-width:1" /><text x="1790" y="1380" font-size="10" style="fill:blue">xs:complexType</text><path d="M1760 1390 C1780 1390 1760 1390 1780 1390" style="fill:transparent;stroke:black" /><rect x="2000" y="1370" width="200" height="40" style="fill:white;stroke:black;stroke-width:1" /><text x="2010" y="1380" font-size="10" style="fill:blue">xs:sequence</text><path d="M1980 1390 C2000 1390 1980 1390 2000 1390" style="fill:transparent;stroke:black" /><rect x="2220" y="1370" width="200" height="40" style="fill:white;stroke:black;stroke-width:1" /><text x="2230" y="1380" font-size="10" style="fill:blue">xs:element</text><path d="M2200 1390 C2220 1390 2200 1390 2220 1390" style="fill:transparent;stroke:black" /><text x="2230" y="1390" font-size="8" style="fill:black">maxOccurs: unbounded</text><text x="2230" y="1400" font-size="8" style="fill:black">name: hito</text><rect x="2440" y="1370" width="200" height="40" style="fill:white;stroke:black;stroke-width:1" /><text x="2450" y="1380" font-size="10" style="fill:blue">xs:complexType</text><path d="M2420 1390 C2440 1390 2420 1390 2440 1390" style="fill:transparent;stroke:black" /><rect x="2660" y="1370" width="200" height="40" style="fill:white;stroke:black;stroke-width:1" /><text x="2670" y="1380" font-size="10" style="fill:blue">xs:sequence</text><path d="M2640 1390 C2660 1390 2640 1390 2660 1390" style="fill:transparent;stroke:black" /><rect x="2880" y="1370" width="200" height="40" style="fill:white;stroke:black;stroke-width:1" /><text x="2890" y="1380" font-size="10" style="fill:blue">xs:element</text><path d="M2860 1390 C2880 1390 2860 1390 2880 1390" style="fill:transparent;stroke:black" /><text x="2890" y="1390" font-size="8" style="fill:black">name: nombre</text><text x="2890" y="1400" font-size="8" style="fill:black">type: xs:string</text><rect x="2880" y="1420" width="200" height="40" style="fill:white;stroke:black;stroke-width:1" /><text x="2890" y="1430" font-size="10" style="fill:blue">xs:element</text><path d="M2860 1390 C2880 1390 2860 1440 2880 1440" style="fill:transparent;stroke:black" /><text x="2890" y="1440" font-size="8" style="fill:black">name: descripcion</text><text x="2890" y="1450" font-size="8" style="fill:black">type: xs:string</text><rect x="2880" y="1470" width="200" height="40" style="fill:white;stroke:black;stroke-width:1" /><text x="2890" y="1480" font-size="10" style="fill:blue">xs:element</text><path d="M2860 1390 C2880 1390 2860 1490 2880 1490" style="fill:transparent;stroke:black" /><text x="2890" y="1490" font-size="8" style="fill:black">name: coordenadas</text><rect x="3100" y="1470" width="200" height="40" style="fill:white;stroke:black;stroke-width:1" /><text x="3110" y="1480" font-size="10" style="fill:blue">xs:complexType</text><path d="M3080 1490 C3100 1490 3080 1490 3100 1490" style="fill:transparent;stroke:black" /><rect x="3320" y="1470" width="200" height="40" style="fill:white;stroke:black;stroke-width:1" /><text x="3330" y="1480" font-size="10" style="fill:blue">xs:sequence</text><path d="M3300 1490 C3320 1490 3300 1490 3320 1490" style="fill:transparent;stroke:black" /><rect x="3540" y="1470" width="200" height="40" style="fill:white;stroke:black;stroke-width:1" /><text x="3550" y="1480" font-size="10" style="fill:blue">xs:element</text><path d="M3520 1490 C3540 1490 3520 1490 3540 1490" style="fill:transparent;stroke:black" /><text x="3550" y="1490" font-size="8" style="fill:black">name: longitud</text><text x="3550" y="1500" font-size="8" style="fill:black">type: xs:decimal</text><rect x="3540" y="1520" width="200" height="40" style="fill:white;stroke:black;stroke-width:1" /><text x="3550" y="1530" font-size="10" style="fill:blue">xs:element</text><path d="M3520 1490 C3540 1490 3520 1540 3540 1540" style="fill:transparent;stroke:black" /><text x="3550" y="1540" font-size="8" style="fill:black">name: latitud</text><text x="3550" y="1550" font-size="8" style="fill:black">type: xs:decimal</text><rect x="3540" y="1570" width="200" height="40" style="fill:white;stroke:black;stroke-width:1" /><text x="3550" y="1580" font-size="10" style="fill:blue">xs:element</text><path d="M3520 1490 C3540 1490 3520 1590 3540 1590" style="fill:transparent;stroke:black" /><text x="3550" y="1590" font-size="8" style="fill:black">name: altitud</text><text x="3550" y="1600" font-size="8" style="fill:black">type: xs:unsignedShort</text><rect x="2880" y="1770" width="200" height="40" style="fill:white;stroke:black;stroke-width:1" /><text x="2890" y="1780" font-size="10" style="fill:blue">xs:element</text><path d="M2860 1390 C2880 1390 2860 1790 2880 1790" style="fill:transparent;stroke:black" /><text x="2890" y="1790" font-size="8" style="fill:black">name: distancia_hito_anterior</text><rect x="3100" y="1770" width="200" height="40" style="fill:white;stroke:black;stroke-width:1" /><text x="3110" y="1780" font-size="10" style="fill:blue">xs:complexType</text><path d="M3080 1790 C3100 1790 3080 1790 3100 1790" style="fill:transparent;stroke:black" /><rect x="3320" y="1770" width="200" height="40" style="fill:white;stroke:black;stroke-width:1" /><text x="3330" y="1780" font-size="10" style="fill:blue">xs:simpleContent</text><path d="M3300 1790 C3320 1790 3300 1790 3320 1790" style="fill:transparent;stroke:black" /><rect x="3540" y="1770" width="200" height="40" style="fill:white;stroke:black;stroke-width:1" /><text x="3550" y="1780" font-size="10" style="fill:blue">xs:extension</text><path d="M3520 1790 C3540 1790 3520 1790 3540 1790" style="fill:transparent;stroke:black" /><text x="3550" y="1790" font-size="8" style="fill:black">base: xs:string</text><rect x="3760" y="1770" width="200" height="40" style="fill:white;stroke:black;stroke-width:1" /><text x="3770" y="1780" font-size="10" style="fill:blue">xs:attribute</text><path d="M3740 1790 C3760 1790 3740 1790 3760 1790" style="fill:transparent;stroke:black" /><text x="3770" y="1790" font-size="8" style="fill:black">name: unidad</text><text x="3770" y="1800" font-size="8" style="fill:black">type: xs:string</text><text x="3770" y="1810" font-size="8" style="fill:black">use: required</text><rect x="2880" y="2020" width="200" height="40" style="fill:white;stroke:black;stroke-width:1" /><text x="2890" y="2030" font-size="10" style="fill:blue">xs:element</text><path d="M2860 1390 C2880 1390 2860 2040 2880 2040" style="fill:transparent;stroke:black" /><text x="2890" y="2040" font-size="8" style="fill:black">name: fotos</text><rect x="3100" y="2020" width="200" height="40" style="fill:white;stroke:black;stroke-width:1" /><text x="3110" y="2030" font-size="10" style="fill:blue">xs:complexType</text><path d="M3080 2040 C3100 2040 3080 2040 3100 2040" style="fill:transparent;stroke:black" /><rect x="3320" y="2020" width="200" height="40" style="fill:white;stroke:black;stroke-width:1" /><text x="3330" y="2030" font-size="10" style="fill:blue">xs:sequence</text><path d="M3300 2040 C3320 2040 3300 2040 3320 2040" style="fill:transparent;stroke:black" /><rect x="3540" y="2020" width="200" height="40" style="fill:white;stroke:black;stroke-width:1" /><text x="3550" y="2030" font-size="10" style="fill:blue">xs:element</text><path d="M3520 2040 C3540 2040 3520 2040 3540 2040" style="fill:transparent;stroke:black" /><text x="3550" y="2040" font-size="8" style="fill:black">maxOccurs: unbounded</text><text x="3550" y="2050" font-size="8" style="fill:black">name: foto</text><rect x="3760" y="2020" width="200" height="40" style="fill:white;stroke:black;stroke-width:1" /><text x="3770" y="2030" font-size="10" style="fill:blue">xs:complexType</text><path d="M3740 2040 C3760 2040 3740 2040 3760 2040" style="fill:transparent;stroke:black" /><rect x="3980" y="2020" width="200" height="40" style="fill:white;stroke:black;stroke-width:1" /><text x="3990" y="2030" font-size="10" style="fill:blue">xs:simpleContent</text><path d="M3960 2040 C3980 2040 3960 2040 3980 2040" style="fill:transparent;stroke:black" /><rect x="4200" y="2020" width="200" height="40" style="fill:white;stroke:black;stroke-width:1" /><text x="4210" y="2030" font-size="10" style="fill:blue">xs:extension</text><path d="M4180 2040 C4200 2040 4180 2040 4200 2040" style="fill:transparent;stroke:black" /><text x="4210" y="2040" font-size="8" style="fill:black">base: xs:string</text><rect x="4420" y="2020" width="200" height="40" style="fill:white;stroke:black;stroke-width:1" /><text x="4430" y="2030" font-size="10" style="fill:blue">xs:attribute</text><path d="M4400 2040 C4420 2040 4400 2040 4420 2040" style="fill:transparent;stroke:black" /><text x="4430" y="2040" font-size="8" style="fill:black">name: nombre</text><text x="4430" y="2050" font-size="8" style="fill:black">type: xs:string</text><text x="4430" y="2060" font-size="8" style="fill:black">use: required</text><rect x="2880" y="2420" width="200" height="40" style="fill:white;stroke:black;stroke-width:1" /><text x="2890" y="2430" font-size="10" style="fill:blue">xs:element</text><path d="M2860 1390 C2880 1390 2860 2440 2880 2440" style="fill:transparent;stroke:black" /><text x="2890" y="2440" font-size="8" style="fill:black">name: videos</text><rect x="3100" y="2420" width="200" height="40" style="fill:white;stroke:black;stroke-width:1" /><text x="3110" y="2430" font-size="10" style="fill:blue">xs:complexType</text><path d="M3080 2440 C3100 2440 3080 2440 3100 2440" style="fill:transparent;stroke:black" /><rect x="3320" y="2420" width="200" height="40" style="fill:white;stroke:black;stroke-width:1" /><text x="3330" y="2430" font-size="10" style="fill:blue">xs:sequence</text><path d="M3300 2440 C3320 2440 3300 2440 3320 2440" style="fill:transparent;stroke:black" /><text x="3330" y="2440" font-size="8" style="fill:black">minOccurs: 0</text><rect x="3540" y="2420" width="200" height="40" style="fill:white;stroke:black;stroke-width:1" /><text x="3550" y="2430" font-size="10" style="fill:blue">xs:element</text><path d="M3520 2440 C3540 2440 3520 2440 3540 2440" style="fill:transparent;stroke:black" /><text x="3550" y="2440" font-size="8" style="fill:black">name: video</text><rect x="3760" y="2420" width="200" height="40" style="fill:white;stroke:black;stroke-width:1" /><text x="3770" y="2430" font-size="10" style="fill:blue">xs:complexType</text><path d="M3740 2440 C3760 2440 3740 2440 3760 2440" style="fill:transparent;stroke:black" /><rect x="3980" y="2420" width="200" height="40" style="fill:white;stroke:black;stroke-width:1" /><text x="3990" y="2430" font-size="10" style="fill:blue">xs:simpleContent</text><path d="M3960 2440 C3980 2440 3960 2440 3980 2440" style="fill:transparent;stroke:black" /><rect x="4200" y="2420" width="200" height="40" style="fill:white;stroke:black;stroke-width:1" /><text x="4210" y="2430" font-size="10" style="fill:blue">xs:extension</text><path d="M4180 2440 C4200 2440 4180 2440 4200 2440" style="fill:transparent;stroke:black" /><text x="4210" y="2440" font-size="8" style="fill:black">base: xs:string</text><rect x="4420" y="2420" width="200" height="40" style="fill:white;stroke:black;stroke-width:1" /><text x="4430" y="2430" font-size="10" style="fill:blue">xs:attribute</text><path d="M4400 2440 C4420 2440 4400 2440 4420 2440" style="fill:transparent;stroke:black" /><text x="4430" y="2440" font-size="8" style="fill:black">name: nombre</text><text x="4430" y="2450" font-size="8" style="fill:black">type: xs:string</text><text x="4430" y="2460" font-size="8" style="fill:black">use: required</text><rect x="2660" y="2870" width="200" height="40" style="fill:white;stroke:black;stroke-width:1" /><text x="2670" y="2880" font-size="10" style="fill:blue">xs:attribute</text><path d="M2640 1390 C2660 1390 2640 2890 2660 2890" style="fill:transparent;stroke:black" /><text x="2670" y="2890" font-size="8" style="fill:black">name: numero</text><text x="2670" y="2900" font-size="8" style="fill:black">type: xs:unsignedByte</text><text x="2670" y="2910" font-size="8" style="fill:black">use: required</text><rect x="1340" y="3220" width="200" height="40" style="fill:white;stroke:black;stroke-width:1" /><text x="1350" y="3230" font-size="10" style="fill:blue">xs:attribute</text><path d="M1320 40 C1340 40 1320 3240 1340 3240" style="fill:transparent;stroke:black" /><text x="1350" y="3240" font-size="8" style="fill:black">name: nombre</text><text x="1350" y="3250" font-size="8" style="fill:black">type: xs:string</text><text x="1350" y="3260" font-size="8" style="fill:black">use: required</text><rect x="1340" y="3270" width="200" height="40" style="fill:white;stroke:black;stroke-width:1" /><text x="1350" y="3280" font-size="10" style="fill:blue">xs:attribute</text><path d="M1320 40 C1340 40 1320 3290 1340 3290" style="fill:transparent;stroke:black" /><text x="1350" y="3290" font-size="8" style="fill:black">name: descripcion</text><text x="1350" y="3300" font-size="8" style="fill:black">type: xs:string</text><text x="1350" y="3310" font-size="8" style="fill:black">use: required</text><rect x="1340" y="3320" width="200" height="40" style="fill:white;stroke:black;stroke-width:1" /><text x="1350" y="3330" font-size="10" style="fill:blue">xs:attribute</text><path d="M1320 40 C1340 40 1320 3340 1340 3340" style="fill:transparent;stroke:black" /><text x="1350" y="3340" font-size="8" style="fill:black">name: recomendacion</text><text x="1350" y="3350" font-size="8" style="fill:black">type: xs:unsignedByte</text><text x="1350" y="3360" font-size="8" style="fill:black">use: required</text></svg>